HIERARCHY
ROOT Hips
{
	OFFSET	0.00	0.00	0.00
	CHANNELS 6 Xposition Yposition Zposition Zrotation Xrotation Yrotation
	JOINT Spine
	{
		OFFSET	 0.00	0.01	 0.00
		CHANNELS 3 Zrotation Xrotation Yrotation
		JOINT Spine1
		{
			OFFSET	 0.00	 2.45913012437421	 0.00
			CHANNELS 3 Zrotation Xrotation Yrotation
            JOINT Neck
            {
                OFFSET	 0.00	 2.48462964506057	 0.00
                CHANNELS 3 Zrotation Xrotation Yrotation
                JOINT Head
                {
                    OFFSET	 0.00	 0.927524780924562	 0.00
                    CHANNELS 3 Zrotation Xrotation Yrotation
                    End Site 
                    {
                        OFFSET	 0.00	 1.14999962169752	 0.00
                    }
                }
            }
			JOINT LeftShoulder
			{
				OFFSET	 0.00	 2.48462964506057	 0.00
				CHANNELS 3 Zrotation Xrotation Yrotation
				JOINT LeftUpArm
				{
					OFFSET	 0.00	 1.24881979654096	 0.00
					CHANNELS 3 Zrotation Xrotation Yrotation
					JOINT LeftForeArm
					{
						OFFSET	 0.00	2.59758046908119	 0.00
						CHANNELS 3 Zrotation Xrotation Yrotation
						JOINT LeftHand
						{
							OFFSET	 0.00	2.45542024364365	 0.00
							CHANNELS 3 Zrotation Xrotation Yrotation
							JOINT LeftHandThumb 
							{
								OFFSET	 0.00	0.00	 0.00
								CHANNELS 3 Zrotation Xrotation Yrotation
								End Site
								{
									OFFSET	 0.00	0.00	1.00000003353624
								}
							}
							JOINT L_Wrist_End 
							{
								OFFSET	 0.00	0.99999967115358	 0.00
								CHANNELS 3 Zrotation Xrotation Yrotation
								End Site 
								{
									OFFSET	 0.00	 0.00	 0.00
								}
							}
						}
					}
				}
			}
			JOINT RightShoulder
			{
				OFFSET	 0.00	 2.48462964506057	 0.00
				CHANNELS 3 Zrotation Xrotation Yrotation
				JOINT RightUpArm
				{
					OFFSET	 0.00	 1.24881979654096	 0.00
					CHANNELS 3 Zrotation Xrotation Yrotation
					JOINT RightForeArm
					{
						OFFSET	 0.00	2.59758046908119	 0.00
						CHANNELS 3 Zrotation Xrotation Yrotation
						JOINT RightHand
						{
							OFFSET	 0.00	2.45542024364365	 0.00
							CHANNELS 3 Zrotation Xrotation Yrotation
							JOINT RightHandThumb 
							{
								OFFSET	 0.00	0.00	 0.00
								CHANNELS 3 Zrotation Xrotation Yrotation
								End Site
								{
									OFFSET	 0.00	0.00	1.00000003353624
								}
							}
							JOINT R_Wrist_End 
							{
								OFFSET	 0.00	0.99999967115358	 0.00
								CHANNELS 3 Zrotation Xrotation Yrotation
								End Site 
								{
									OFFSET	 0.00	 0.00	 0.00
								}
							}
						}
					}
				}
			}
		}
	}
	JOINT LeftUpLeg
	{
		OFFSET	 1.2719394002717	 0.00	 0.00
		CHANNELS 3 Zrotation Xrotation Yrotation
		JOINT LeftLowLeg
		{
			OFFSET	 0.00	-4.3429100912261	 0.00
			CHANNELS 3 Zrotation Xrotation Yrotation
			JOINT LeftFoot
			{
				OFFSET	 0.00	-4.48767017425826	 0.00
				CHANNELS 3 Zrotation Xrotation Yrotation
				JOINT LeftToeBase
                {
                    OFFSET	 0.00	0.00	 1.51507020887566
                    CHANNELS 3 Zrotation Xrotation Yrotation
                    End Site 
                    {
                        OFFSET	 0.00	0.00	 0.75000010571191
                    }
                }
			}
		}
	}
	JOINT RightUpLeg
	{
		OFFSET	 -1.2719393604653	 0.00	 0.00
		CHANNELS 3 Zrotation Xrotation Yrotation
		JOINT RightLowLeg
		{
			OFFSET	 0.00	-4.3429100912261	 0.00
			CHANNELS 3 Zrotation Xrotation Yrotation
			JOINT RightFoot
			{
				OFFSET	 0.00	-4.48767017425826	 0.00
				CHANNELS 3 Zrotation Xrotation Yrotation
				JOINT RightToeBase
                {
                    OFFSET	 0.00	0.00	 1.51507020887566
                    CHANNELS 3 Zrotation Xrotation Yrotation
                    End Site 
                    {
                        OFFSET	 0.00	0.00	 0.749999965609858
                    }
                }   
			}
		}
	}
}
MOTION 
Frames:	6 
Frame Time: 0.02 
 1.3885299682617187 1.8830099487304688 9.788779907226562 -146.662 82.2449 149.557 3.10545 -7.11855 -1.94435 0.0074577 7.38717 -2.18411 -1.08088 25.9182 3.6514 16.4641 -58.8464 13.2179 -88.76497 -15.2555 -4.52154 -10.54 2.51645 -31.0897 0.0 22.5867 0.0 30.2635 -10.7292 28.9863 0.0 0.0 0.0 0.0 0.0 0.0 97.62927 -13.7283 2.8205 6.57908 0.204732 34.3053 0.0 19.9545 0.0 -18.8424 -1.99855 -26.878 0.0 0.0 0.0 0.0 0.0 0.0 7.96723 -6.20539 -1.7328 0.0 8.49094 0.0 7.24987 4.9924 -1.79903 0.0 -33.5854 0.0 1.49552 -3.80004 4.76142 0.0 6.27085 0.0 7.92126 10.957069 -6.71697 0.0 -27.5658 0.0 
  1.3884500122070313 1.8780000305175781 9.78843017578125 -146.542 82.2573 149.47 3.14089 -7.10504 -1.96189 -0.0448011 7.31674 -2.21025 -1.09642 25.9991 3.6766 16.5075 -58.8481 13.2275 -88.74644 -15.3098 -4.47048 -10.5332 2.53196 -31.2236 0.0 22.5963 0.0 30.2647 -10.7071 29.0773 0.0 0.0 0.0 0.0 0.0 0.0 97.64267 -13.6824 2.7599 6.56219 0.211474 34.382 0.0 19.9258 0.0 -18.8877 -1.98501 -27.0005 0.0 0.0 0.0 0.0 0.0 0.0 7.97361 -6.16245 -1.7274 0.0 8.48666 0.0 7.25631 4.9657 -1.8237 0.0 -33.5769 0.0 1.50432 -3.75634 4.76372 0.0 6.29114 0.0 7.93092 10.920219 -6.7425 0.0 -27.5541 0.0 
  1.3884100341796874 1.8742100524902343 9.788200073242187 -146.546 82.2457 149.537 3.15881 -7.13537 -1.93901 -0.0668077 7.30976 -2.19073 -1.05688 26.0017 3.60659 16.4568 -58.8189 13.1384 -88.73405 -15.2669 -4.49907 -10.5357 2.54897 -31.1973 0.0 22.6004 0.0 30.2779 -10.7312 29.084 0.0 0.0 0.0 0.0 0.0 0.0 97.66153 -13.7648 2.78548 6.53064 0.20859 34.3046 0.0 19.9185 0.0 -18.8165 -2.00266 -26.9414 0.0 0.0 0.0 0.0 0.0 0.0 7.97405 -6.16908 -1.76072 0.0 8.489 0.0 7.25733 4.9553003 -1.83769 0.0 -33.6031 0.0 1.5084 -3.73364 4.67761 0.0 6.28982 0.0 7.92319 10.89884 -6.72537 0.0 -27.5653 0.0 
  1.3885499572753905 1.869980010986328 9.788170166015625 -146.672 82.2099 149.694 3.11584 -7.24052 -1.96411 0.0298641 7.38737 -2.2051 -1.12808 25.9518 3.64108 16.3748 -58.7695 13.0123 -88.79913 -15.2982 -4.55066 -10.5164 2.53478 -31.0889 0.0 22.5829 0.0 30.2856 -10.7506 29.1704 0.0 0.0 0.0 0.0 0.0 0.0 97.61168 -13.7258 2.85445 6.5231 0.192217 34.2803 0.0 19.9203 0.0 -18.7555 -2.08264 -26.8825 0.0 0.0 0.0 0.0 0.0 0.0 7.97611 -6.19091 -1.75082 0.0 8.48519 0.0 7.25607 4.9420996 -1.86766 0.0 -33.6092 0.0 1.51118 -3.74406 4.6219 0.0 6.28794 0.0 7.901 10.8946705 -6.71587 0.0 -27.5557 0.0 
  1.3885600280761718 1.8665699768066406 9.788189697265626 -146.803 82.1668 149.86 3.12916 -7.27668 -1.95938 0.0183702 7.31535 -2.2028 -1.11381 26.0036 3.60859 16.3337 -58.7314 12.948 -88.81973 -15.2763 -4.56579 -10.4572 2.50178 -30.9839 0.0 22.5289 0.0 30.1832 -10.7344 29.0263 0.0 0.0 0.0 0.0 0.0 0.0 97.62074 -13.7254 2.85739 6.50187 0.174558 34.2585 0.0 19.9074 0.0 -18.6804 -2.02857 -26.8733 0.0 0.0 0.0 0.0 0.0 0.0 7.98022 -6.2347 -1.75611 0.0 8.49948 0.0 7.26188 4.9261 -1.88495 0.0 -33.6024 0.0 1.51784 -3.76294 4.58182 0.0 6.27978 0.0 7.88679 10.89419 -6.72354 0.0 -27.5837 0.0 
  1.3886099243164063 1.8626600646972655 9.788170166015625 -146.964 82.1204 150.045 3.1958 -7.26747 -1.96767 -0.107945 7.12676 -2.22747 -1.06871 26.1406 3.59178 16.3829 -58.7198 13.0075 -88.74638 -15.3216 -4.47108 -10.4588 2.47486 -31.0095 0.0 22.5289 0.0 30.2363 -10.7107 29.3251 0.0 0.0 0.0 0.0 0.0 0.0 97.66917 -13.6839 2.76076 6.4878 0.168697 34.1759 0.0 19.9486 0.0 -18.6406 -2.15668 -26.6021 0.0 0.0 0.0 0.0 0.0 0.0 7.98385 -6.26692 -1.76247 0.0 8.49619 0.0 7.25954 4.9160995 -1.89469 0.0 -33.5974 0.0 1.52161 -3.78437 4.53436 0.0 6.275 0.0 7.87522 10.88564 -6.707 0.0 -27.582401 0.0 
